$MeshFormat
4.1 0 8
$EndMeshFormat
$PhysicalNames
1
3 1 "Resonator"
$EndPhysicalNames
$Entities
16 24 12 1
9 -0.0025 -0.0125 -0.008364999999999999 0 
10 -0.0025 -0.0125 -0.008399999999999999 0 
11 -0.0025 0.0125 -0.008364999999999999 0 
12 -0.0025 0.0125 -0.008399999999999999 0 
13 0.0025 -0.0125 -0.008364999999999999 0 
14 0.0025 -0.0125 -0.008399999999999999 0 
15 0.0025 0.0125 -0.008364999999999999 0 
16 0.0025 0.0125 -0.008399999999999999 0 
17 -0.015 -0.025 0.01 0 
18 -0.015 -0.025 -0.01 0 
19 -0.015 0.025 0.01 0 
20 -0.015 0.025 -0.01 0 
21 0.015 -0.025 -0.01 0 
22 0.015 -0.025 0.01 0 
23 0.015 0.025 0.01 0 
24 0.015 0.025 -0.01 0 
13 -0.0025001 -0.0125001 -0.008400099999999999 -0.0024999 -0.0124999 -0.0083649 0 2 10 -9 
14 -0.0025001 -0.0125001 -0.008365099999999999 -0.0024999 0.0125001 -0.0083649 0 2 9 -11 
15 -0.0025001 0.0124999 -0.008400099999999999 -0.0024999 0.0125001 -0.0083649 0 2 12 -11 
16 -0.0025001 -0.0125001 -0.008400099999999999 -0.0024999 0.0125001 -0.0083999 0 2 10 -12 
17 0.0024999 -0.0125001 -0.008400099999999999 0.0025001 -0.0124999 -0.0083649 0 2 14 -13 
18 0.0024999 -0.0125001 -0.008365099999999999 0.0025001 0.0125001 -0.0083649 0 2 13 -15 
19 0.0024999 0.0124999 -0.008400099999999999 0.0025001 0.0125001 -0.0083649 0 2 16 -15 
20 0.0024999 -0.0125001 -0.008400099999999999 0.0025001 0.0125001 -0.0083999 0 2 14 -16 
21 -0.0025001 -0.0125001 -0.008400099999999999 0.0025001 -0.0124999 -0.0083999 0 2 10 -14 
22 -0.0025001 -0.0125001 -0.008365099999999999 0.0025001 -0.0124999 -0.0083649 0 2 9 -13 
23 -0.0025001 0.0124999 -0.008400099999999999 0.0025001 0.0125001 -0.0083999 0 2 12 -16 
24 -0.0025001 0.0124999 -0.008365099999999999 0.0025001 0.0125001 -0.0083649 0 2 11 -15 
25 -0.0150001 -0.0250001 -0.0100001 -0.0149999 -0.0249999 0.0100001 0 2 18 -17 
26 -0.0150001 -0.0250001 0.009999900000000001 -0.0149999 0.0250001 0.0100001 0 2 17 -19 
27 -0.0150001 0.0249999 -0.0100001 -0.0149999 0.0250001 0.0100001 0 2 20 -19 
28 -0.0150001 -0.0250001 -0.0100001 -0.0149999 0.0250001 -0.009999900000000001 0 2 18 -20 
29 -0.0150001 -0.0250001 -0.0100001 0.0150001 -0.0249999 -0.009999900000000001 0 2 18 -21 
30 0.0149999 -0.0250001 -0.0100001 0.0150001 -0.0249999 0.0100001 0 2 21 -22 
31 -0.0150001 -0.0250001 0.009999900000000001 0.0150001 -0.0249999 0.0100001 0 2 17 -22 
32 -0.0150001 0.0249999 0.009999900000000001 0.0150001 0.0250001 0.0100001 0 2 19 -23 
33 0.0149999 -0.0250001 0.009999900000000001 0.0150001 0.0250001 0.0100001 0 2 22 -23 
34 -0.0150001 0.0249999 -0.0100001 0.0150001 0.0250001 -0.009999900000000001 0 2 20 -24 
35 0.0149999 0.0249999 -0.0100001 0.0150001 0.0250001 0.0100001 0 2 24 -23 
36 0.0149999 -0.0250001 -0.0100001 0.0150001 0.0250001 -0.009999900000000001 0 2 21 -24 
7 -0.0025001 -0.0125001 -0.008400099999999999 -0.0024999 0.0125001 -0.0083649 0 4 -13 16 15 -14 
8 0.0024999 -0.0125001 -0.008400099999999999 0.0025001 0.0125001 -0.0083649 0 4 -17 20 19 -18 
9 -0.0025001 -0.0125001 -0.008400099999999999 0.0025001 -0.0124999 -0.0083649 0 4 -21 13 22 -17 
10 -0.0025001 0.0124999 -0.008400099999999999 0.0025001 0.0125001 -0.0083649 0 4 -23 15 24 -19 
11 -0.0025001 -0.0125001 -0.008400099999999999 0.0025001 0.0125001 -0.0083999 0 4 -16 21 20 -23 
12 -0.0025001 -0.0125001 -0.008365099999999999 0.0025001 0.0125001 -0.0083649 0 4 -14 22 18 -24 
13 -0.0150001 -0.0250001 -0.0100001 -0.0149999 0.0250001 0.0100001 0 4 -25 28 27 -26 
14 -0.0150001 -0.0250001 -0.0100001 0.0150001 -0.0249999 0.0100001 0 4 -29 25 31 -30 
15 -0.0150001 -0.0250001 0.009999900000000001 0.0150001 0.0250001 0.0100001 0 4 -26 31 33 -32 
16 -0.0150001 0.0249999 -0.0100001 0.0150001 0.0250001 0.0100001 0 4 -34 27 32 -35 
17 -0.0150001 -0.0250001 -0.0100001 0.0150001 0.0250001 -0.009999900000000001 0 4 -28 29 36 -34 
18 0.0149999 -0.0250001 -0.0100001 0.0150001 0.0250001 0.0100001 0 4 -30 36 35 -33 
1 -0.0150001 -0.0250001 -0.0100001 0.0150001 0.0250001 0.0100001 1 1 12 -13 -14 15 16 -17 18 7 9 -12 -10 11 -8 
$EndEntities
$Nodes
41 338 1 338
0 9 0 1
1
-0.0025 -0.0125 -0.008364999999999999
0 10 0 1
2
-0.0025 -0.0125 -0.008399999999999999
0 11 0 1
3
-0.0025 0.0125 -0.008364999999999999
0 12 0 1
4
-0.0025 0.0125 -0.008399999999999999
0 13 0 1
5
0.0025 -0.0125 -0.008364999999999999
0 14 0 1
6
0.0025 -0.0125 -0.008399999999999999
0 15 0 1
7
0.0025 0.0125 -0.008364999999999999
0 16 0 1
8
0.0025 0.0125 -0.008399999999999999
0 17 0 1
9
-0.015 -0.025 0.01
0 18 0 1
10
-0.015 -0.025 -0.01
0 19 0 1
11
-0.015 0.025 0.01
0 20 0 1
12
-0.015 0.025 -0.01
0 21 0 1
13
0.015 -0.025 -0.01
0 22 0 1
14
0.015 -0.025 0.01
0 23 0 1
15
0.015 0.025 0.01
0 24 0 1
16
0.015 0.025 -0.01
1 14 0 4
17
18
19
20
-0.0025 -0.0075 -0.008364999999999999
-0.0025 -0.002499999999999999 -0.008364999999999999
-0.0025 0.0025 -0.008364999999999999
-0.0025 0.007500000000000003 -0.008364999999999999
1 16 0 4
21
22
23
24
-0.0025 -0.0075 -0.008399999999999999
-0.0025 -0.002499999999999999 -0.008399999999999999
-0.0025 0.0025 -0.008399999999999999
-0.0025 0.007500000000000003 -0.008399999999999999
1 18 0 4
25
26
27
28
0.0025 -0.0075 -0.008364999999999999
0.0025 -0.002499999999999999 -0.008364999999999999
0.0025 0.0025 -0.008364999999999999
0.0025 0.007500000000000003 -0.008364999999999999
1 20 0 4
29
30
31
32
0.0025 -0.0075 -0.008399999999999999
0.0025 -0.002499999999999999 -0.008399999999999999
0.0025 0.0025 -0.008399999999999999
0.0025 0.007500000000000003 -0.008399999999999999
1 25 0 3
33
34
35
-0.015 -0.025 -0.005000000000000008
-0.015 -0.025 -8.673617379884035e-18
-0.015 -0.025 0.004999999999999994
1 26 0 8
36
37
38
39
40
41
42
43
-0.015 -0.01944444444444444 0.01
-0.015 -0.01388888888888889 0.01
-0.015 -0.008333333333333325 0.01
-0.015 -0.002777777777777775 0.01
-0.015 0.002777777777777778 0.01
-0.015 0.008333333333333345 0.01
-0.015 0.0138888888888889 0.01
-0.015 0.01944444444444445 0.01
1 27 0 3
44
45
46
-0.015 0.025 -0.005000000000000008
-0.015 0.025 -8.673617379884035e-18
-0.015 0.025 0.004999999999999994
1 28 0 8
47
48
49
50
51
52
53
54
-0.015 -0.01944444444444444 -0.01
-0.015 -0.01388888888888889 -0.01
-0.015 -0.008333333333333325 -0.01
-0.015 -0.002777777777777775 -0.01
-0.015 0.002777777777777778 -0.01
-0.015 0.008333333333333345 -0.01
-0.015 0.0138888888888889 -0.01
-0.015 0.01944444444444445 -0.01
1 29 0 4
55
56
57
58
-0.008999999999999998 -0.025 -0.01
-0.002999999999999985 -0.025 -0.01
0.00300000000000001 -0.025 -0.01
0.008999999999999991 -0.025 -0.01
1 30 0 3
59
60
61
0.015 -0.025 -0.005000000000000008
0.015 -0.025 -8.673617379884035e-18
0.015 -0.025 0.004999999999999994
1 31 0 4
62
63
64
65
-0.008999999999999998 -0.025 0.01
-0.002999999999999985 -0.025 0.01
0.00300000000000001 -0.025 0.01
0.008999999999999991 -0.025 0.01
1 32 0 4
66
67
68
69
-0.008999999999999998 0.025 0.01
-0.002999999999999985 0.025 0.01
0.00300000000000001 0.025 0.01
0.008999999999999991 0.025 0.01
1 33 0 8
70
71
72
73
74
75
76
77
0.015 -0.01944444444444444 0.01
0.015 -0.01388888888888889 0.01
0.015 -0.008333333333333325 0.01
0.015 -0.002777777777777775 0.01
0.015 0.002777777777777778 0.01
0.015 0.008333333333333345 0.01
0.015 0.0138888888888889 0.01
0.015 0.01944444444444445 0.01
1 34 0 4
78
79
80
81
-0.008999999999999998 0.025 -0.01
-0.002999999999999985 0.025 -0.01
0.00300000000000001 0.025 -0.01
0.008999999999999991 0.025 -0.01
1 35 0 3
82
83
84
0.015 0.025 -0.005000000000000008
0.015 0.025 -8.673617379884035e-18
0.015 0.025 0.004999999999999994
1 36 0 8
85
86
87
88
89
90
91
92
0.015 -0.01944444444444444 -0.01
0.015 -0.01388888888888889 -0.01
0.015 -0.008333333333333325 -0.01
0.015 -0.002777777777777775 -0.01
0.015 0.002777777777777778 -0.01
0.015 0.008333333333333345 -0.01
0.015 0.0138888888888889 -0.01
0.015 0.01944444444444445 -0.01
2 11 0 5
93
94
95
96
97
4.336808689942018e-19 0.005000000000000001 -0.008399999999999999
-1.301042606982605e-18 -0.004999999999999998 -0.008399999999999999
0 -0.01 -0.008399999999999999
0 0.01000000000000001 -0.008399999999999999
0 0 -0.008399999999999999
2 12 0 5
98
99
100
101
102
0 0.005000000000000004 -0.008364999999999999
0 -0.01 -0.008364999999999999
-1.301042606982605e-18 0.01000000000000001 -0.008364999999999999
-1.301042606982605e-18 -0.004999999999999998 -0.008364999999999999
-8.673617379884035e-19 0 -0.008364999999999999
2 13 0 30
103
104
105
106
107
108
109
110
111
112
113
114
115
116
117
118
119
120
121
122
123
124
125
126
127
128
129
130
131
132
-0.015 -0.01106543182542155 -0.004796604964740245
-0.015 -0.0001123374875744605 0.005154160126150246
-0.015 0.01106466721391667 -0.004821742810786551
-0.015 -0.01688607249527882 0.004960557890804435
-0.015 0.01687776260274032 0.004953171741707729
-0.015 -0.02102100598626196 -0.002378908456317354
-0.015 0.02102116196888787 -0.002378911722546191
-0.015 -0.0001199514747009071 -0.004852818806092316
-0.015 0.01116280643810052 0.005166361662430624
-0.015 0.01359636439440284 6.462499885545245e-05
-0.015 0.008181589681434676 0.000186099510056886
-0.015 0.005439287159255707 -0.004778396755947508
-0.015 -0.01115429644971813 0.005188497750694751
-0.015 -0.01359703102877156 8.548199142366548e-05
-0.015 -0.0083376823736208 0.0003054349535230923
-0.015 -0.00559192444260162 -0.004586712052679151
-0.015 0.00264210257204231 0.0002308892915628014
-0.015 0.00552421305103154 0.005135797089049881
-0.015 -0.005640380347027525 0.005192731795525539
-0.015 -0.01670937996703098 -0.004955007540654952
-0.015 0.01670934533769503 -0.004959703224554583
-0.015 -0.02115709600137793 0.002350385761972161
-0.015 0.0211558929990184 0.002349150926522407
-0.015 -0.00293626484974055 0.0003170952822231631
-0.015 -0.02143496607954748 -0.006466783199394463
-0.015 0.02143499035020547 -0.006467722989420156
-0.015 -0.0214367503994876 0.006461118206089923
-0.015 0.02143539141450217 0.006459886636869002
-0.015 -0.01787411709574425 1.25019294455915e-05
-0.015 0.0178721054605489 5.666543996961718e-06
2 14 0 18
133
134
135
136
137
138
139
140
141
142
143
144
145
146
147
148
149
150
1.040834085586084e-17 -0.025 -0.005006130443748435
0.006303370044398644 -0.025 0.004837569702495773
-0.006304780354322526 -0.025 0.004837569702495772
0.01079283869643126 -0.025 -0.002345780303595448
-0.01079283869643125 -0.025 -0.002345780303595448
-2.350516539722375e-07 -0.025 0.004945585183252461
0.01092559307778715 -0.025 0.002341482340327673
-0.01092582812944113 -0.025 0.002341482340327671
-0.006321641730125355 -0.025 -0.004844261363306862
0.006321641730125366 -0.025 -0.004844261363306861
0.002811094815164721 -0.025 -1.134184567424396e-05
-0.002843109696268109 -0.025 -1.309646116355416e-05
-0.007382055759990206 -0.025 -3.440869320348733e-06
0.007377247153892895 -0.025 -3.190209964729768e-06
0.01124579262443716 -0.025 0.006435810408564687
-0.01124612169675273 -0.025 0.006435810408564687
0.01122289608531132 -0.025 -0.006438008333380464
-0.01122289608531132 -0.025 -0.006438008333380464
2 15 0 46
151
152
153
154
155
156
157
158
159
160
161
162
163
164
165
166
167
168
169
170
171
172
173
174
175
176
177
178
179
180
181
182
183
184
185
186
187
188
189
190
191
192
193
194
195
196
0.01032507582980233 -0.0001669210403053151 0.01
8.328109220068561e-05 -0.019866966566382 0.01
1.214306433183765e-17 0.01980384757729338 0.01
-0.009790949668873377 -0.005372553739150382 0.01
-0.009777941801972421 0.00504070907217409 0.01
0.010268782137768 -0.01116403800442493 0.01
0.009411392579536958 0.01103463692021076 0.01
-0.01018874775675312 0.01666666666666668 0.01
-0.01069884791955497 -0.01653694220936985 0.01
0.006214984657426013 -0.0194661285967361 0.01
0.002653765208154385 -0.01453101234332911 0.01
-0.002584586712558224 -0.014595998752976 0.01
-2.690104176286678e-05 -0.009649836593764836 0.01
-0.005471468017375511 -0.009881872111005132 0.01
-0.002876832427428325 -0.004862867087366919 0.01
0.002389477866122633 -0.004216993732479329 0.01
-0.00046748386026918 0.000258995330604507 0.01
-0.006348744796227539 -4.164991819974317e-05 0.01
-0.00373005219059622 0.004685816914540286 0.01
0.001579253191649539 0.005626706213667371 0.01
-0.001560359329421094 0.009902917308166566 0.01
0.004051083848195622 0.0107181333698853 0.01
0.006415704198850597 0.02045418650965888 0.01
0.01043695629912939 -0.005770877101368931 0.01
0.0101531331818879 0.005028866891637354 0.01
-0.01024827275450146 0.01109312706860756 0.01
-0.00473472610108216 0.0144072851533156 0.01
-0.006012663518088161 -0.01957111976088104 0.01
-0.006301308929561421 0.0203158586194323 0.01
0.01035806237013254 0.01666666666666669 0.01
0.01075391355715594 -0.01649924876541771 0.01
0.005181071310176123 0.001404221108655932 0.01
-0.01053587021807517 -0.01124155733316374 0.01
0.005547931361804918 -0.009031965255623234 0.01
0.0005988489558363622 0.01401096324440634 0.01
-0.006010270435514671 0.009025971103360821 0.01
-0.01125943627478925 -5.33563693108606e-05 0.01
0.005139181992092012 0.01544807238135355 0.01
0.006766773242740207 -0.003037092700735496 0.01
0.006043607720187975 0.006857247813774697 0.01
-0.01101597286646967 -0.02106487730075739 0.01
-0.01088437971953327 0.02101735231931817 0.01
0.0108979164614816 0.02103197200062235 0.01
0.01104967608185799 -0.02105835204611238 0.01
-0.007060687277130407 -0.01436549803347915 0.01
0.007140146341986189 -0.01399823677357376 0.01
2 16 0 18
197
198
199
200
201
202
203
204
205
206
207
208
209
210
211
212
213
214
1.040834085586084e-17 0.025 -0.005006130443748436
0.00630337004439864 0.025 0.004837569702495773
-0.006304780354322526 0.025 0.00483756970249577
0.01079283869643126 0.025 -0.00234578030359545
-0.01079283869643125 0.025 -0.002345780303595448
-2.350516539722375e-07 0.025 0.004945585183252455
0.01092559307778715 0.025 0.002341482340327673
-0.01092582812944113 0.025 0.002341482340327669
-0.006321641730125355 0.025 -0.004844261363306862
0.006321641730125366 0.025 -0.004844261363306862
0.002811094815164721 0.025 -1.134184567424569e-05
-0.002843109696268109 0.025 -1.309646116355416e-05
-0.007382055759990206 0.025 -3.440869320348733e-06
0.007377247153892895 0.025 -3.190209964731502e-06
0.01124579262443716 0.025 0.006435810408564687
-0.01124612169675273 0.025 0.006435810408564687
0.01122289608531132 0.025 -0.006438008333380464
-0.01122289608531132 0.025 -0.006438008333380464
2 17 0 46
215
216
217
218
219
220
221
222
223
224
225
226
227
228
229
230
231
232
233
234
235
236
237
238
239
240
241
242
243
244
245
246
247
248
249
250
251
252
253
254
255
256
257
258
259
260
0.009868269688134639 -0.005446948760292752 -0.01
-0.01024155494687107 0.006104729200084612 -0.01
-0.01018319617770192 -0.01120237200120932 -0.01
0.01027212152308878 0.01106918986655752 -0.01
-8.39896797291996e-05 -0.01988908493439775 -0.01
5.260883815410081e-05 0.02005422958515161 -0.01
-0.01061083873519088 0.01656028624915782 -0.01
0.01068131982821486 -0.01654679371443736 -0.01
-0.006176054947492998 -0.01942971244436553 -0.01
-0.002655617952824691 -0.0145512719646627 -0.01
0.002547058492894109 -0.01464265264314193 -0.01
-2.251860897823851e-05 -0.009746297340227358 -0.01
0.005521634286332594 -0.009775458044739973 -0.01
0.002656892284411908 -0.004949836636707818 -0.01
-0.002840141436444701 -0.004933240971264265 -0.01
0.0003878103952459529 -0.0001359538712825265 -0.01
0.006166433314707835 -0.000222223937523431 -0.01
0.003531071445963627 0.004513182682865678 -0.01
-0.001834532363220197 0.004707316752458987 -0.01
0.0007795083052370387 0.009741891826350435 -0.01
-0.005060663351468266 0.00959663154711278 -0.01
-0.004961459285449842 -0.0002189013609458501 -0.01
-0.008962595387086264 -0.005210509057410145 -0.01
0.009622184906553557 0.005018325787784904 -0.01
0.006166045017397606 0.01949030961778254 -0.01
-0.01018874775675312 0.01111111111111113 -0.01
0.002844532429031314 0.01454521799193065 -0.01
0.006001288415995752 -0.01958517412758046 -0.01
-0.006196760372638973 0.01956852937081907 -0.01
-0.01070791093087537 -0.0164637164852777 -0.01
0.01071485538174734 0.01645170119336303 -0.01
0.01055714575522512 -0.01116025251727832 -0.01
-0.00528434875441299 -0.009819820673281823 -0.01
-0.002837652775645391 0.01522648021931754 -0.01
-0.01006125604852169 0.0007887684552515262 -0.01
0.005777865522714878 0.009468281622934331 -0.01
0.01113137758187921 -0.0001301693820062524 -0.01
0.01100201684013209 0.02101419344154472 -0.01
-0.01100232964413447 -0.02100923610669753 -0.01
0.01101302356101738 -0.02106731667542749 -0.01
-0.01108233693527091 0.02108685210043681 -0.01
-0.006201926671722938 0.004057291949780564 -0.01
0.007040820511717411 -0.01418945691547292 -0.01
-0.006950758608371197 0.01388888888888891 -0.01
0.007155083974795983 0.01420494005851362 -0.01
-0.007001425752661593 -0.01429337871375941 -0.01
2 18 0 30
261
262
263
264
265
266
267
268
269
270
271
272
273
274
275
276
277
278
279
280
281
282
283
284
285
286
287
288
289
290
0.015 -0.0110427783613589 -0.00480742441367065
0.015 1.890366934557616e-05 0.005080649876448321
0.015 0.01106779938433593 0.004945102494574775
0.015 -0.01688607249527882 0.004960557890804435
0.015 0.01687762016678123 -0.004955558262955998
0.015 0.005590050518099986 -0.005192774850257584
0.015 -0.02102100598626196 -0.002378908456317354
0.015 0.02102099579360226 0.002378908242886139
0.015 -0.01115429644971813 0.005188497750694751
0.015 -0.01359325545142778 8.367874993526515e-05
0.015 -0.008252439359635932 0.0002779697745506089
0.015 -0.005472917001502847 -0.004659695684526349
0.015 0.01116577625321336 -0.005175484292167865
0.015 0.01360032364779867 -4.78006178090927e-05
0.015 0.008307007157275427 -0.0001022303393445213
0.015 0.002809943842840626 -7.274109672360946e-05
0.015 0.005552460860818113 0.004975130155825827
0.015 -0.005546114942188905 0.005161360609107527
0.015 -0.002733826035450117 9.598227250208306e-05
0.015 3.694927507240722e-05 -0.005124145610118382
0.015 -0.01670668312607114 -0.004956295570289525
0.015 0.01670995025573747 0.004974005235494813
0.015 -0.02115709600137793 0.002350385761972161
0.015 0.02115567538852534 -0.002349552739667174
0.015 -0.02143442671135551 -0.006467040805321378
0.015 0.02143507809875683 0.006470582695676191
0.015 -0.0214367503994876 0.006461118206089923
0.015 0.02143533997929473 -0.006460284970353726
0.015 0.01787291305048899 3.715897364114928e-10
0.015 -0.01787282261208353 1.188367522099616e-05
3 1 0 48
291
292
293
294
295
296
297
298
299
300
301
302
303
304
305
306
307
308
309
310
311
312
313
314
315
316
317
318
319
320
321
322
323
324
325
326
327
328
329
330
331
332
333
334
335
336
337
338
0 -0.0125 0.0008685251867217528
0.002499999999999999 1.301042606982605e-18 0.0008889140768372703
0.002499999999999998 0.01 0.000726881340622822
-0.005489856909690378 0.01549164634873566 0.0003663670957825832
-0.005690671727303171 0.005000000000000002 0.0003416151467256039
-0.005751722662374047 -0.004999999999999996 0.0001781402143447371
-0.006808371877808556 -0.016747547518062 -0.001882053455784847
0.006829499438357191 0.01677330303178979 -0.001936813529621741
0.006807185229893798 -0.01674627345734872 -0.001907754296587875
0.006576365910139112 -0.00731245215954651 -0.0008507899597974492
0.007090314097366348 0.005000000000000003 -0.00278791960747156
0.001315231771929386 0.01700544331771957 0.003152760634318124
-0.007927165249353246 -0.01141850328859604 0.003098964145413591
0 -0.0075 -0.002732915543058601
-8.673617379884035e-19 0.01657254092306203 -0.003514210723146739
0.00844739845067239 -0.01251579399684054 0.003345709037397466
0.008508068051905921 0.007720635035464355 0.003504660177848032
-0.008237824496268293 0.01030528457935406 -0.003370108265187357
4.336808689942018e-19 -0.01689966307467621 -0.004086678027832629
-0.002605554434734422 -0.0185371246296257 0.003559566975269265
0.008985598687643932 0.0189516680108973 0.003819646189072495
-0.005667500560806786 -0.01053182811660158 -0.003115952355899145
-0.008564539314026641 0.01029565635247139 0.003361690009536736
-0.009038839757159734 0.01894360950356509 -0.003800219272546249
0.008628711004229862 -0.002169901035757225 0.003356301148562255
-0.002877595785560712 8.673617379884035e-19 -0.002520938627751963
-0.00911955075930145 -0.01900686738860162 0.003631390635291897
0.009112340291581218 -0.01899908256364439 0.003618652329639203
-2.656222002771257e-05 -0.005603303596461627 0.003796935361962427
-0.003272727515704053 0.0001279074286986304 0.004047578143237317
0.008736883983365159 -0.001468742702632434 -0.003300682062803964
-0.009241464951545372 0.01913677155935225 0.003848216225525452
0.006399987787507217 0.01098482479049989 -0.00389197471418533
0.0003895721816979565 0.004516395084222503 -0.003231631891052189
-0.009310846021334321 5.491344153931528e-05 -0.001758676437540034
-0.002010615127602304 0.009822935753740811 -0.002565249192276506
0.0005772999251609102 0.005050348194487333 0.003915183042768841
-0.002513013719074209 0.01149613367385791 0.004073538393505409
0.006820151196110279 0.01343597543695386 0.003023788631063737
0.003320829733249571 -0.0171204542362394 0.003097064112123294
-0.009185757411432169 0.001988695649692017 0.004507474234114284
0.00789585176020564 -0.01162649243091532 -0.004712102743237285
-0.0101450339088209 -0.02005918246171944 -0.004541205138199186
0.01018494697201884 0.02010448890994911 -0.004485947187513347
0.01014973677591725 -0.02006422863241809 -0.004540634700084209
-0.008243102875463497 0.004782656339187823 -0.004738800876848703
0.00356236733706665 -0.003447592998503703 -0.003144350125161928
-0.003561465479260868 0.02014446922575232 0.003243238978216432
$EndNodes
$Elements
1 1101 1 1101
3 1 4 1101
1 184 306 291 319 
2 121 296 126 331 
3 182 307 292 327 
4 292 307 182 315 
5 103 122 244 297 
6 296 316 18 325 
7 291 306 300 319 
8 184 306 300 315 
9 3 294 258 308 
10 184 315 300 319 
11 260 217 244 297 
12 121 154 296 331 
13 258 294 3 314 
14 103 244 217 297 
15 3 294 305 314 
16 99 5 304 309 
17 99 304 1 309 
18 184 300 306 319 
19 18 237 17 296 
20 103 297 217 312 
21 118 296 117 312 
22 217 297 260 312 
23 184 161 291 306 
24 300 306 278 315 
25 237 296 118 312 
26 291 5 304 332 
27 174 278 306 315 
28 164 291 303 319 
29 237 296 18 325 
30 278 300 271 306 
31 121 117 296 303 
32 184 291 163 319 
33 305 314 294 338 
34 161 291 306 330 
35 276 307 301 315 
36 121 296 154 303 
37 274 323 307 329 
38 301 307 292 315 
39 184 174 306 315 
40 258 308 294 314 
41 116 297 103 312 
42 17 296 237 312 
43 296 325 126 331 
44 184 161 163 291 
45 164 163 291 319 
46 164 303 296 319 
47 118 296 237 325 
48 207 298 210 311 
49 299 300 291 306 
50 277 307 276 315 
51 164 291 162 303 
52 296 303 117 312 
53 274 275 307 323 
54 291 300 299 332 
55 208 314 305 338 
56 271 300 278 315 
57 154 320 296 331 
58 116 303 297 312 
59 245 273 265 323 
60 217 118 103 312 
61 3 294 308 326 
62 17 18 296 304 
63 172 293 328 329 
64 118 117 103 312 
65 116 117 303 312 
66 126 121 117 296 
67 207 206 298 305 
68 205 305 208 314 
69 300 306 299 332 
70 122 244 297 333 
71 291 162 303 310 
72 169 327 295 328 
73 239 298 206 305 
74 154 296 164 303 
75 163 162 164 291 
76 277 276 262 315 
77 121 126 104 331 
78 274 298 323 329 
79 301 324 27 337 
80 207 302 298 311 
81 169 313 295 331 
82 116 103 117 312 
83 3 305 248 314 
84 169 186 313 331 
85 99 1 5 309 
86 189 315 184 319 
87 293 307 172 327 
88 172 328 185 329 
89 175 182 307 315 
90 112 294 132 322 
91 141 297 144 309 
92 218 273 245 323 
93 243 305 205 314 
94 291 304 300 332 
95 294 314 132 322 
96 292 307 301 327 
97 302 328 293 329 
98 3 305 294 326 
99 112 132 294 314 
100 143 299 142 309 
101 203 284 268 334 
102 294 308 112 314 
103 207 298 302 305 
104 185 328 302 329 
105 156 174 269 306 
106 19 324 20 336 
107 217 237 118 312 
108 175 262 151 315 
109 102 27 324 337 
110 293 327 172 328 
111 299 309 143 330 
112 276 315 301 321 
113 126 117 118 296 
114 174 278 269 306 
115 190 307 182 327 
116 248 258 3 314 
117 238 301 266 323 
118 122 103 116 297 
119 295 313 113 331 
120 200 284 203 334 
121 268 284 289 334 
122 296 304 18 316 
123 142 299 242 309 
124 113 119 295 331 
125 309 310 143 330 
126 296 303 291 319 
127 291 304 1 312 
128 221 123 308 314 
129 144 309 297 310 
130 266 273 218 323 
131 141 223 297 309 
132 301 307 275 323 
133 126 296 118 325 
134 125 109 201 322 
135 190 172 307 327 
136 146 318 299 330 
137 164 296 165 319 
138 189 184 166 319 
139 112 313 294 322 
140 20 324 326 336 
141 5 25 304 332 
142 113 295 119 336 
143 271 306 300 332 
144 203 268 311 334 
145 292 324 301 337 
146 240 221 105 308 
147 25 300 215 337 
148 146 299 143 330 
149 168 320 154 331 
150 289 298 274 311 
151 238 266 218 323 
152 197 220 206 305 
153 291 304 5 309 
154 1 304 291 309 
155 102 324 316 337 
156 136 283 267 318 
157 243 197 205 305 
158 239 206 220 305 
159 197 243 220 305 
160 99 5 25 304 
161 296 291 303 312 
162 28 324 323 326 
163 143 309 144 310 
164 125 201 204 322 
165 172 307 293 329 
166 18 316 236 325 
167 303 310 195 317 
168 27 321 301 337 
169 19 316 324 336 
170 237 18 236 325 
171 100 28 323 326 
172 268 289 311 334 
173 154 165 296 320 
174 162 310 291 330 
175 113 308 295 336 
176 137 108 124 317 
177 123 105 221 308 
178 17 304 296 312 
179 25 215 300 332 
180 274 273 275 323 
181 267 136 318 335 
182 195 303 162 310 
183 291 303 297 310 
184 208 209 314 338 
185 158 313 107 322 
186 298 274 311 329 
187 205 197 208 305 
188 218 245 259 323 
189 121 183 115 303 
190 164 154 165 296 
191 270 306 271 332 
192 207 197 206 305 
193 272 271 300 332 
194 283 136 139 318 
195 108 317 137 333 
196 175 151 182 315 
197 144 297 145 310 
198 145 310 297 317 
199 291 1 309 312 
200 282 263 180 329 
201 112 308 294 313 
202 207 305 302 338 
203 301 307 293 327 
204 260 297 1 312 
205 260 224 1 297 
206 258 221 308 314 
207 113 295 308 313 
208 305 326 293 328 
209 120 113 313 331 
210 269 278 271 306 
211 7 323 305 326 
212 297 303 116 317 
213 171 172 327 328 
214 140 137 124 317 
215 208 305 207 338 
216 290 270 299 318 
217 109 314 201 322 
218 121 104 154 331 
219 125 132 109 322 
220 123 112 308 314 
221 162 291 161 330 
222 295 326 324 336 
223 131 297 116 317 
224 323 324 293 326 
225 210 311 298 334 
226 167 182 166 292 
227 177 294 313 322 
228 155 313 186 331 
229 299 306 270 332 
230 167 292 166 319 
231 299 306 291 330 
232 259 298 7 323 
233 182 292 167 327 
234 219 141 133 309 
235 100 323 7 326 
236 215 272 300 332 
237 295 325 119 336 
238 244 260 297 333 
239 301 293 324 327 
240 107 313 112 322 
241 294 326 305 328 
242 296 304 291 312 
243 163 161 162 291 
244 300 304 25 332 
245 158 111 107 313 
246 5 225 257 299 
247 219 223 141 309 
248 180 263 157 329 
249 104 187 154 331 
250 141 297 223 333 
251 142 242 299 335 
252 156 184 174 306 
253 281 299 270 332 
254 251 280 238 321 
255 115 159 106 303 
256 280 301 238 321 
257 169 320 295 327 
258 207 198 302 311 
259 305 323 293 326 
260 106 303 159 317 
261 146 318 136 335 
262 267 318 290 335 
263 290 267 283 318 
264 304 316 292 337 
265 206 210 207 298 
266 206 298 239 334 
267 295 320 169 331 
268 141 145 144 297 
269 133 142 242 309 
270 297 303 291 312 
271 141 144 133 309 
272 167 292 319 320 
273 272 261 271 332 
274 143 142 133 309 
275 270 306 299 318 
276 242 219 133 309 
277 292 301 324 327 
278 146 142 143 299 
279 271 279 300 315 
280 280 266 238 301 
281 5 299 257 332 
282 1 297 224 309 
283 300 315 292 319 
284 272 300 279 321 
285 302 305 293 328 
286 240 258 221 308 
287 207 210 198 311 
288 201 209 204 322 
289 108 131 317 333 
290 145 137 317 333 
291 289 265 298 334 
292 295 324 316 336 
293 271 279 272 300 
294 293 305 298 323 
295 108 131 124 317 
296 241 7 259 298 
297 26 25 215 337 
298 291 304 296 319 
299 289 298 311 334 
300 295 327 326 328 
301 122 297 131 333 
302 159 115 183 303 
303 263 274 307 329 
304 5 225 299 309 
305 7 298 241 305 
306 215 300 272 321 
307 146 299 318 335 
308 174 184 189 315 
309 293 302 298 305 
310 119 325 295 331 
311 301 315 292 321 
312 282 180 311 329 
313 292 316 304 319 
314 145 317 297 333 
315 165 319 296 320 
316 300 321 215 337 
317 116 131 122 297 
318 290 299 281 335 
319 205 208 209 314 
320 132 314 109 322 
321 265 274 289 298 
322 281 299 332 335 
323 177 313 294 328 
324 326 327 293 328 
325 113 120 119 331 
326 169 155 186 331 
327 270 281 290 299 
328 316 324 292 337 
329 246 261 272 332 
330 297 309 1 312 
331 292 320 167 327 
332 134 318 146 330 
333 201 314 209 322 
334 7 298 305 323 
335 121 154 183 303 
336 281 332 222 335 
337 295 324 326 327 
338 275 301 276 307 
339 248 305 243 314 
340 294 305 302 328 
341 241 298 239 305 
342 25 227 215 332 
343 146 139 136 318 
344 291 300 304 319 
345 110 118 237 325 
346 279 300 315 321 
347 177 313 158 322 
348 159 303 195 317 
349 260 223 224 297 
350 198 173 302 311 
351 209 322 314 338 
352 293 326 324 327 
353 276 301 280 321 
354 138 152 134 330 
355 145 137 140 317 
356 173 202 198 302 
357 242 299 225 309 
358 280 276 266 301 
359 225 242 257 299 
360 298 302 293 329 
361 175 182 190 307 
362 145 297 141 333 
363 290 318 299 335 
364 210 298 206 334 
365 176 111 158 313 
366 304 316 296 319 
367 282 311 274 329 
368 297 310 303 317 
369 208 197 207 305 
370 177 294 322 338 
371 160 134 152 330 
372 237 249 110 325 
373 297 317 131 333 
374 121 115 117 303 
375 223 224 297 309 
376 142 299 146 335 
377 123 112 105 308 
378 154 168 165 320 
379 19 98 20 324 
380 171 172 170 327 
381 26 231 27 337 
382 134 146 143 330 
383 190 170 172 327 
384 291 309 297 312 
385 292 300 319 337 
386 116 303 106 317 
387 184 196 161 306 
388 292 319 304 337 
389 144 143 133 309 
390 263 282 274 329 
391 271 261 270 332 
392 301 321 292 337 
393 17 101 18 304 
394 239 298 259 334 
395 242 257 299 335 
396 177 328 294 338 
397 241 259 239 298 
398 171 327 169 328 
399 223 297 260 333 
400 297 309 291 310 
401 263 274 275 307 
402 295 326 313 328 
403 306 318 196 330 
404 102 316 18 337 
405 236 325 316 336 
406 269 181 156 306 
407 155 120 313 331 
408 17 237 247 312 
409 28 301 323 324 
410 100 28 7 323 
411 101 26 102 337 
412 102 18 101 337 
413 294 313 326 328 
414 316 292 324 327 
415 107 111 112 313 
416 246 222 261 332 
417 237 236 249 325 
418 25 304 300 337 
419 171 169 186 328 
420 294 313 308 326 
421 161 306 196 330 
422 263 307 157 329 
423 159 183 195 303 
424 181 269 264 306 
425 231 301 27 321 
426 113 119 114 336 
427 195 164 162 303 
428 314 322 294 338 
429 281 261 222 332 
430 289 274 282 311 
431 276 275 266 301 
432 27 102 26 337 
433 173 153 202 302 
434 308 313 295 326 
435 195 310 178 317 
436 19 236 316 336 
437 231 321 27 337 
438 271 278 279 315 
439 143 310 138 330 
440 261 281 270 332 
441 246 272 215 332 
442 177 302 328 338 
443 198 202 207 302 
444 112 132 107 322 
445 170 190 182 327 
446 248 243 258 314 
447 115 106 116 303 
448 20 326 308 336 
449 300 292 315 337 
450 112 123 132 314 
451 279 315 276 321 
452 172 185 188 329 
453 28 27 301 324 
454 181 306 264 318 
455 316 320 292 327 
456 114 308 113 336 
457 240 105 216 308 
458 197 243 79 220 
459 185 302 188 329 
460 293 307 301 323 
461 316 319 292 320 
462 239 259 245 334 
463 291 309 299 330 
464 221 53 240 105 
465 293 307 323 329 
466 238 301 231 321 
467 205 243 79 197 
468 242 133 219 57 
469 263 277 75 307 
470 320 325 296 331 
471 120 111 176 313 
472 64 138 152 134 
473 293 323 298 329 
474 247 237 217 312 
475 141 133 56 219 
476 114 216 105 308 
477 145 135 310 317 
478 155 120 176 313 
479 296 319 316 320 
480 100 7 3 326 
481 250 301 238 323 
482 251 238 231 321 
483 171 185 172 328 
484 114 216 308 336 
485 304 319 300 337 
486 290 264 270 318 
487 112 113 308 313 
488 64 152 160 134 
489 219 56 141 223 
490 196 318 160 330 
491 236 249 325 336 
492 151 278 174 315 
493 188 302 311 329 
494 138 310 152 330 
495 242 222 257 335 
496 57 242 133 142 
497 151 262 278 315 
498 244 223 260 333 
499 264 306 270 318 
500 196 306 181 318 
501 131 116 106 317 
502 80 206 197 220 
503 251 272 280 321 
504 19 316 102 324 
505 80 239 206 220 
506 177 302 185 328 
507 261 87 246 272 
508 250 238 218 323 
509 293 323 301 324 
510 7 305 3 326 
511 173 202 68 198 
512 238 27 231 301 
513 28 301 250 323 
514 98 102 27 324 
515 98 19 102 324 
516 134 160 318 330 
517 134 143 138 330 
518 232 27 238 301 
519 188 302 173 311 
520 53 221 123 105 
521 291 310 309 330 
522 175 75 277 307 
523 298 311 302 329 
524 263 75 157 307 
525 86 261 246 222 
526 238 250 28 301 
527 72 269 156 174 
528 157 307 172 329 
529 187 168 154 331 
530 275 276 277 307 
531 73 278 151 262 
532 278 151 174 73 
533 76 180 282 263 
534 294 328 302 338 
535 107 158 42 111 
536 86 281 261 222 
537 115 183 121 38 
538 244 48 122 103 
539 181 71 269 156 
540 220 241 239 305 
541 119 126 325 331 
542 72 269 174 278 
543 144 145 135 310 
544 207 302 202 338 
545 177 176 158 313 
546 119 104 126 331 
547 232 238 28 301 
548 296 320 316 325 
549 248 220 243 305 
550 180 76 157 263 
551 138 143 144 310 
552 316 320 295 325 
553 175 157 75 307 
554 244 48 103 217 
555 195 162 178 310 
556 154 164 183 303 
557 248 4 235 234 
558 118 110 237 50 
559 179 177 322 338 
560 137 108 34 124 
561 283 60 136 267 
562 201 45 109 125 
563 110 325 249 336 
564 63 135 178 310 
565 308 326 295 336 
566 292 321 315 337 
567 114 110 249 336 
568 49 118 103 217 
569 264 181 71 269 
570 110 237 50 249 
571 68 153 202 173 
572 211 268 286 311 
573 159 37 115 106 
574 178 152 63 310 
575 262 276 279 315 
576 114 105 113 308 
577 295 325 320 331 
578 147 134 194 318 
579 111 120 176 41 
580 37 115 183 159 
581 176 42 158 111 
582 300 315 321 337 
583 153 302 177 338 
584 88 280 251 272 
585 114 119 325 336 
586 115 116 117 303 
587 124 34 137 140 
588 139 283 60 136 
589 265 245 91 273 
590 63 152 138 310 
591 45 201 204 125 
592 63 138 135 310 
593 302 305 294 338 
594 182 167 170 327 
595 20 308 235 336 
596 214 109 128 314 
597 196 156 181 306 
598 283 147 287 318 
599 255 205 214 314 
600 268 211 203 311 
601 164 165 163 319 
602 262 151 74 175 
603 251 215 272 321 
604 155 176 120 41 
605 185 177 153 302 
606 191 135 148 317 
607 83 268 203 284 
608 273 266 218 90 
609 188 311 180 329 
610 232 28 27 301 
611 235 308 20 326 
612 247 217 260 312 
613 282 193 286 311 
614 175 74 262 277 
615 235 3 308 326 
616 109 214 201 314 
617 105 112 113 308 
618 270 269 271 306 
619 218 91 245 273 
620 166 184 163 319 
621 157 190 172 307 
622 247 260 1 312 
623 123 255 128 314 
624 200 83 203 284 
625 215 246 87 272 
626 148 124 129 317 
627 216 240 52 105 
628 217 49 118 237 
629 27 232 238 231 
630 232 250 28 238 
631 283 139 147 318 
632 28 98 27 324 
633 183 154 121 38 
634 238 218 266 90 
635 106 191 129 317 
636 177 186 313 328 
637 196 181 160 318 
638 135 178 310 317 
639 120 113 111 313 
640 235 20 3 326 
641 161 196 160 330 
642 125 212 130 322 
643 114 325 110 336 
644 148 140 124 317 
645 219 242 225 309 
646 51 110 249 114 
647 223 219 224 309 
648 52 216 105 114 
649 264 269 270 306 
650 216 114 249 336 
651 235 3 258 308 
652 130 192 107 322 
653 171 170 169 327 
654 299 318 306 330 
655 255 123 221 314 
656 193 173 211 311 
657 5 227 25 332 
658 167 320 169 327 
659 147 194 287 318 
660 125 204 212 322 
661 19 20 256 336 
662 157 188 180 329 
663 19 256 236 336 
664 159 195 178 317 
665 135 191 178 317 
666 186 155 176 313 
667 160 194 134 318 
668 211 286 193 311 
669 258 243 221 314 
670 120 40 104 331 
671 282 180 193 311 
672 236 18 19 316 
673 179 177 158 322 
674 214 128 255 314 
675 208 207 202 338 
676 169 320 168 331 
677 110 126 118 325 
678 159 191 106 317 
679 114 119 110 325 
680 148 129 191 317 
681 240 216 235 308 
682 235 308 216 336 
683 40 187 104 331 
684 279 276 280 321 
685 249 216 51 114 
686 243 205 255 314 
687 161 160 152 330 
688 255 78 214 205 
689 251 215 88 272 
690 184 156 196 306 
691 194 70 287 181 
692 112 111 113 313 
693 263 275 277 307 
694 134 147 194 65 
695 99 25 17 304 
696 40 120 155 331 
697 167 319 165 320 
698 173 198 211 311 
699 92 288 252 334 
700 235 24 233 234 
701 188 153 173 302 
702 148 191 62 135 
703 316 325 295 336 
704 202 302 153 338 
705 92 265 288 334 
706 186 176 177 313 
707 189 182 151 315 
708 264 287 70 181 
709 40 155 187 331 
710 170 167 169 327 
711 158 107 192 322 
712 157 172 188 329 
713 43 107 130 192 
714 47 127 253 333 
715 254 285 85 335 
716 47 122 127 333 
717 254 242 58 335 
718 92 252 245 334 
719 212 192 130 322 
720 281 85 285 335 
721 246 257 222 332 
722 195 183 164 303 
723 252 81 239 334 
724 213 81 252 334 
725 179 153 177 338 
726 47 253 244 333 
727 101 304 25 337 
728 92 245 265 334 
729 236 256 249 336 
730 256 20 235 336 
731 66 192 212 179 
732 254 58 149 335 
733 278 262 279 315 
734 244 122 47 333 
735 55 223 253 333 
736 268 289 282 311 
737 55 253 150 333 
738 151 174 189 315 
739 213 206 81 334 
740 162 152 178 310 
741 78 255 243 205 
742 254 85 222 335 
743 135 191 62 178 
744 209 199 322 338 
745 199 67 179 338 
746 137 145 141 333 
747 142 58 242 335 
748 198 210 203 311 
749 235 258 240 308 
750 136 142 146 335 
751 33 150 127 108 
752 128 214 44 109 
753 149 58 142 335 
754 285 59 267 149 
755 222 85 281 335 
756 55 150 141 333 
757 138 144 135 310 
758 282 286 268 311 
759 200 210 206 334 
760 206 239 81 334 
761 194 160 134 65 
762 286 211 84 268 
763 167 166 165 319 
764 119 120 104 331 
765 201 205 209 314 
766 25 29 215 227 
767 33 150 108 137 
768 214 44 109 201 
769 136 267 59 149 
770 155 169 168 331 
771 67 153 179 338 
772 272 279 280 321 
773 157 175 190 307 
774 127 108 150 333 
775 109 132 123 314 
776 213 82 284 288 
777 55 141 223 333 
778 149 267 285 335 
779 1 17 247 312 
780 35 129 148 124 
781 212 46 125 130 
782 61 283 147 287 
783 139 146 134 318 
784 1 225 5 309 
785 215 227 246 332 
786 212 199 66 179 
787 108 137 150 333 
788 67 202 153 338 
789 284 200 82 213 
790 204 209 199 322 
791 18 102 19 316 
792 149 136 267 335 
793 43 158 107 192 
794 284 213 288 334 
795 268 211 84 203 
796 290 283 264 318 
797 123 128 109 314 
798 122 131 108 333 
799 202 67 199 338 
800 145 140 135 317 
801 69 193 173 211 
802 284 200 213 334 
803 267 290 281 335 
804 199 179 322 338 
805 287 264 283 318 
806 251 231 215 321 
807 125 107 132 322 
808 247 21 226 229 
809 227 6 226 225 
810 26 101 25 337 
811 188 185 153 302 
812 125 204 46 212 
813 124 148 35 140 
814 61 283 139 147 
815 159 178 191 317 
816 194 160 181 318 
817 124 131 106 317 
818 188 173 180 311 
819 106 129 124 317 
820 250 259 7 323 
821 289 284 265 334 
822 203 211 198 311 
823 28 250 7 323 
824 220 248 241 305 
825 147 139 134 318 
826 201 214 205 314 
827 173 69 211 198 
828 256 235 216 336 
829 130 107 125 322 
830 148 135 140 317 
831 25 101 17 304 
832 23 236 233 230 
833 243 255 221 314 
834 250 218 259 323 
835 119 126 110 325 
836 204 199 212 322 
837 29 226 228 227 
838 3 20 100 326 
839 234 250 32 232 
840 167 168 169 320 
841 229 236 22 230 
842 222 242 254 335 
843 1 224 225 309 
844 252 239 245 334 
845 177 171 186 328 
846 167 165 168 320 
847 228 230 30 231 
848 219 225 224 309 
849 226 224 2 247 
850 236 22 18 237 
851 253 223 244 333 
852 247 17 21 237 
853 173 193 180 311 
854 230 232 31 231 
855 237 49 118 50 
856 75 157 76 263 
857 163 165 166 319 
858 52 240 53 105 
859 192 179 158 322 
860 177 185 171 328 
861 63 135 62 178 
862 142 57 242 58 
863 41 120 155 40 
864 78 243 79 205 
865 206 81 239 80 
866 160 64 134 65 
867 213 252 288 334 
868 71 72 269 156 
869 42 158 107 43 
870 127 150 253 333 
871 56 55 141 223 
872 227 5 257 332 
873 149 285 254 335 
874 74 73 151 262 
875 234 32 93 232 
876 187 155 168 331 
877 90 266 238 89 
878 228 215 29 227 
879 234 93 233 232 
880 3 8 4 241 
881 3 8 241 7 
882 209 208 199 338 
883 216 52 51 114 
884 75 74 175 277 
885 54 53 221 123 
886 51 110 50 249 
887 174 72 278 73 
888 91 245 265 92 
889 181 70 264 71 
890 250 28 32 232 
891 108 34 33 137 
892 45 109 44 201 
893 60 136 267 59 
894 36 37 159 106 
895 47 244 48 122 
896 77 76 180 282 
897 39 121 154 38 
898 246 87 261 86 
899 122 108 127 333 
900 137 141 150 333 
901 152 63 138 64 
902 222 86 281 85 
903 267 281 285 335 
904 142 136 149 335 
905 88 215 87 272 
906 200 206 213 334 
907 284 200 83 82 
908 133 56 219 57 
909 288 265 284 334 
910 84 83 268 203 
911 179 199 66 67 
912 250 8 241 234 
913 199 208 202 338 
914 49 103 48 217 
915 216 249 256 336 
916 22 236 229 237 
917 226 229 94 228 
918 232 27 31 231 
919 124 35 34 140 
920 60 283 139 61 
921 125 204 45 46 
922 130 212 11 192 
923 153 202 67 68 
924 286 193 15 211 
925 256 20 24 235 
926 150 253 10 127 
927 241 4 248 234 
928 288 213 16 252 
929 69 173 68 198 
930 149 285 13 254 
931 38 115 183 37 
932 129 191 9 148 
933 229 247 21 237 
934 287 147 14 194 
935 128 255 12 214 
936 80 197 79 220 
937 246 227 257 332 
938 218 91 273 90 
939 176 42 111 41 
940 40 39 104 187 
941 230 94 229 228 
942 241 8 4 234 
943 259 7 8 250 
944 95 6 2 226 
945 280 89 88 251 
946 3 4 248 241 
947 1 6 5 225 
948 6 1 2 225 
949 226 6 2 225 
950 23 236 256 233 
951 233 256 24 235 
952 229 22 94 230 
953 260 1 2 247 
954 43 130 11 192 
955 192 212 11 66 
956 19 24 256 20 
957 23 24 256 19 
958 69 15 193 211 
959 77 193 15 286 
960 285 13 59 149 
961 150 10 33 127 
962 214 12 128 44 
963 92 288 16 252 
964 213 16 82 288 
965 191 9 36 129 
966 78 12 255 214 
967 212 11 46 130 
968 15 286 211 84 
969 129 9 35 148 
970 147 14 61 287 
971 70 287 14 194 
972 81 16 213 252 
973 253 47 10 127 
974 285 13 254 85 
975 224 2 1 225 
976 194 147 14 65 
977 13 149 254 58 
978 10 55 253 150 
979 191 62 9 148 
980 21 226 229 94 
981 23 24 233 256 
982 54 255 12 128 
983 2 224 226 225 
984 29 6 95 226 
985 4 235 258 248 
986 227 5 6 257 
987 95 2 21 226 
988 259 8 241 250 
989 96 235 4 234 
990 235 3 4 258 
991 96 4 8 234 
992 95 21 29 226 
993 26 30 27 231 
994 30 31 27 231 
995 28 8 7 250 
996 28 32 8 250 
997 230 31 30 231 
998 225 227 6 257 
999 97 93 31 230 
1000 97 23 93 230 
1001 31 32 27 232 
1002 27 32 28 232 
1003 225 6 5 257 
1004 21 22 94 229 
1005 2 1 260 224 
1006 24 235 96 234 
1007 226 29 6 227 
1008 24 93 23 233 
1009 224 260 2 247 
1010 7 8 241 259 
1011 94 29 226 228 
1012 23 233 93 230 
1013 93 233 24 234 
1014 30 94 230 228 
1015 6 25 227 29 
1016 25 6 227 5 
1017 226 2 21 247 
1018 236 19 23 256 
1019 4 24 235 96 
1020 2 17 247 1 
1021 17 2 247 21 
1022 94 22 97 230 
1023 94 97 30 230 
1024 29 30 228 94 
1025 32 31 93 232 
1026 226 21 29 94 
1027 258 3 4 248 
1028 236 23 97 230 
1029 23 22 236 97 
1030 3 24 235 4 
1031 3 24 20 235 
1032 97 22 236 230 
1033 97 31 30 230 
1034 250 32 8 234 
1035 96 93 234 32 
1036 96 93 24 234 
1037 22 18 23 236 
1038 23 18 19 236 
1039 8 32 96 234 
1040 315 277 175 262 
1041 315 175 277 307 
1042 323 265 274 273 
1043 323 274 265 298 
1044 313 169 328 186 
1045 313 328 169 295 
1046 319 189 292 166 
1047 319 292 189 315 
1048 182 292 189 166 
1049 182 189 292 315 
1050 323 266 275 301 
1051 323 275 266 273 
1052 5 299 291 309 
1053 291 299 5 332 
1054 203 334 210 200 
1055 210 334 203 311 
1056 304 1 17 99 
1057 304 17 1 312 
1058 265 334 323 298 
1059 265 323 334 245 
1060 259 323 334 298 
1061 259 334 323 245 
1062 335 257 332 222 
1063 335 332 257 299 
1064 337 18 304 316 
1065 337 304 18 101 
1066 104 154 39 121 
1067 39 154 104 187 
1068 327 316 295 324 
1069 327 295 316 320 
1070 330 162 152 161 
1071 330 152 162 310 
1072 238 280 89 266 
1073 238 89 280 251 
1074 337 231 215 26 
1075 337 215 231 321 
1076 123 255 54 128 
1077 123 54 255 221 
1078 282 193 77 286 
1079 282 77 193 180 
1080 181 287 318 264 
1081 181 318 287 194 
1082 191 106 36 159 
1083 36 106 191 129 
1084 212 179 322 199 
1085 322 179 212 192 
1086 231 30 215 26 
1087 231 215 30 228 
1088 25 215 30 26 
1089 29 215 30 25 
1090 29 30 215 228 
1091 18 237 21 17 
1092 241 3 305 248 
1093 241 305 3 7 
1094 230 93 232 233 
1095 230 232 93 31 
1096 22 21 237 229 
1097 22 237 21 18 
1098 28 324 100 98 
1099 28 100 324 326 
1100 20 100 324 98 
1101 20 324 100 326 
$EndElements
